{"glyphs":{"0":{"ha":383,"x_min":0,"x_max":0,"o":"m 192 986 b 21 814 81 986 21 926 l 21 157 b 192 -14 21 46 81 -14 b 363 157 303 -14 363 46 l 363 814 b 192 986 363 926 303 986 z m 192 847 b 217 808 208 847 217 833 l 217 610 l 167 472 l 167 808 b 192 847 167 833 175 847 z m 192 125 b 167 164 175 125 167 139 l 167 363 l 217 500 l 217 164 b 192 125 217 139 208 125 z "},"1":{"ha":285,"x_min":0,"x_max":0,"o":"m 224 139 l 265 972 l 104 972 l 104 950 b 6 861 104 892 72 861 l 6 665 b 101 782 68 665 96 706 l 108 876 l 132 876 l 81 139 l 0 139 l 0 0 l 285 0 l 285 139 z "},"2":{"ha":383,"x_min":0,"x_max":0,"o":"m 21 0 l 363 0 l 363 300 l 215 300 l 215 139 l 168 139 l 168 232 b 361 638 168 399 361 417 l 361 814 b 189 986 361 926 301 986 b 21 814 74 986 15 926 l 31 617 l 176 617 l 165 808 b 189 847 164 833 172 847 b 214 808 206 847 214 833 l 214 650 b 21 244 214 493 21 467 z "},"3":{"ha":383,"x_min":0,"x_max":0,"o":"m 192 -14 b 363 156 303 -14 363 46 l 363 342 b 239 508 363 450 319 508 l 229 508 l 229 529 l 239 529 b 360 690 318 529 360 586 l 360 817 b 189 986 360 926 300 986 b 21 814 74 986 15 926 l 31 603 l 176 603 l 165 808 b 189 847 164 833 172 847 b 214 811 206 847 214 835 l 214 596 b 189 557 214 571 206 557 l 97 557 l 97 418 l 192 418 b 217 379 208 418 217 404 l 217 161 b 192 125 217 138 208 125 b 168 164 176 125 168 139 l 168 369 l 24 369 l 24 158 b 192 -14 24 46 82 -14 z "},"4":{"ha":831,"x_min":0,"x_max":0,"o":"m 140 274 l 140 274 b 183 204 176 274 183 249 b 140 135 183 161 176 135 b 128 136 136 135 131 135 l 128 272 b 140 274 132 274 136 274 z m 351 224 l 296 224 l 296 271 l 361 271 l 361 306 l 256 306 l 256 104 l 361 104 l 361 138 l 296 138 l 296 190 l 351 190 z m 138 101 l 138 101 b 224 204 200 101 224 133 b 139 308 224 274 201 308 b 88 303 125 308 106 306 l 88 104 b 138 101 106 101 126 101 z m 397 306 l 397 306 b 388 104 393 257 389 169 l 426 104 b 429 249 426 151 428 201 l 431 249 l 458 135 l 496 135 l 524 249 b 528 104 526 201 528 151 l 568 104 b 560 306 565 169 563 257 l 504 306 l 478 194 l 451 306 z m 669 101 l 669 101 b 744 204 725 101 744 133 b 669 308 744 275 725 308 b 596 204 614 308 596 275 b 669 101 596 133 614 101 z m 669 274 b 704 204 699 274 704 250 b 669 135 704 160 699 135 b 636 204 642 135 636 160 b 669 274 636 250 642 274 z m 656 689 l 656 689 b 439 429 540 689 439 429 b 669 529 497 486 569 518 b 742 601 699 533 742 558 b 656 689 742 631 728 689 z m 193 617 l 193 617 b 107 529 136 617 107 574 b 193 457 107 486 150 457 b 410 357 281 457 353 429 b 193 617 410 357 324 617 z m 436 824 l 436 824 b 313 822 394 864 343 853 b 325 710 283 790 294 740 b 410 486 388 650 419 578 b 436 824 410 486 529 733 z "},"5":{"ha":381,"x_min":0,"x_max":0,"o":"m 360 972 l 21 972 l 21 450 l 165 450 l 165 532 b 189 571 165 557 174 571 b 214 532 206 571 214 557 l 214 161 b 189 125 214 138 206 125 b 167 164 175 125 167 139 l 167 393 l 21 393 l 21 158 b 189 -14 21 46 79 -14 b 360 156 300 -14 360 46 l 360 492 b 253 675 360 611 322 675 b 176 600 203 675 176 649 l 153 600 l 154 833 l 213 833 l 213 719 l 360 719 z "},"6":{"ha":381,"x_min":0,"x_max":0,"o":"m 189 -14 b 360 156 300 -14 360 46 l 360 414 b 257 567 360 513 324 567 b 176 489 204 567 176 539 l 153 489 l 165 808 b 193 847 167 833 176 847 b 217 808 210 847 218 833 l 208 617 l 353 617 l 360 814 b 193 986 364 926 306 986 b 21 814 81 986 21 926 l 21 158 b 189 -14 21 46 79 -14 z m 189 125 b 165 161 174 125 165 138 l 165 422 b 189 461 165 447 174 461 b 213 422 204 461 213 447 l 213 161 b 189 125 213 138 204 125 z "},"7":{"ha":342,"x_min":0,"x_max":0,"o":"m 315 801 l 328 801 l 328 972 l 14 972 l 14 833 l 263 833 l 263 813 l 232 813 b 108 646 151 813 117 754 l 107 625 l 22 625 l 22 486 l 97 486 l 61 0 l 207 0 l 238 486 l 319 486 l 319 625 l 247 625 l 254 740 b 315 801 257 781 278 801 z "},"8":{"ha":389,"x_min":0,"x_max":0,"o":"m 194 -14 b 368 156 307 -14 368 46 l 368 372 b 244 536 368 479 325 536 l 228 536 l 228 557 l 244 557 b 365 721 324 557 365 614 l 365 817 b 194 986 365 926 306 986 b 24 817 83 986 24 926 l 24 617 b 144 453 24 510 65 453 l 161 453 l 161 432 l 144 432 b 21 268 64 432 21 375 l 21 156 b 194 -14 21 46 82 -14 z m 194 564 b 169 603 178 564 169 578 l 169 811 b 194 847 169 835 178 847 b 219 811 211 847 219 835 l 219 603 b 194 564 219 578 211 564 z m 197 125 b 172 161 181 125 172 138 l 172 386 b 197 425 172 411 181 425 b 222 386 214 425 222 411 l 222 161 b 197 125 222 138 214 125 z "},"9":{"ha":381,"x_min":0,"x_max":0,"o":"m 188 -14 b 360 158 300 -14 360 46 l 360 814 b 192 986 360 926 301 986 b 21 817 81 986 21 926 l 21 510 b 124 357 21 411 57 357 b 206 435 176 357 206 385 l 229 435 l 215 164 b 188 125 214 139 204 125 b 164 164 172 125 164 139 l 164 307 l 21 307 l 21 158 b 188 -14 21 46 79 -14 z m 192 463 b 168 501 176 463 168 476 l 168 811 b 192 847 168 835 176 847 b 215 811 207 847 215 835 l 215 501 b 192 463 215 476 208 463 z "}," ":{"ha":208,"x_min":0,"x_max":0,"o":""},"!":{"ha":831,"x_min":0,"x_max":0,"o":"m 140 274 l 140 274 b 183 204 176 274 183 249 b 140 135 183 161 176 135 b 128 136 136 135 131 135 l 128 272 b 140 274 132 274 136 274 z m 351 224 l 296 224 l 296 271 l 361 271 l 361 306 l 256 306 l 256 104 l 361 104 l 361 138 l 296 138 l 296 190 l 351 190 z m 138 101 l 138 101 b 224 204 200 101 224 133 b 139 308 224 274 201 308 b 88 303 125 308 106 306 l 88 104 b 138 101 106 101 126 101 z m 397 306 l 397 306 b 388 104 393 257 389 169 l 426 104 b 429 249 426 151 428 201 l 431 249 l 458 135 l 496 135 l 524 249 b 528 104 526 201 528 151 l 568 104 b 560 306 565 169 563 257 l 504 306 l 478 194 l 451 306 z m 669 101 l 669 101 b 744 204 725 101 744 133 b 669 308 744 275 725 308 b 596 204 614 308 596 275 b 669 101 596 133 614 101 z m 669 274 b 704 204 699 274 704 250 b 669 135 704 160 699 135 b 636 204 642 135 636 160 b 669 274 636 250 642 274 z m 656 689 l 656 689 b 439 429 540 689 439 429 b 669 529 497 486 569 518 b 742 601 699 533 742 558 b 656 689 742 631 728 689 z m 193 617 l 193 617 b 107 529 136 617 107 574 b 193 457 107 486 150 457 b 410 357 281 457 353 429 b 193 617 410 357 324 617 z m 436 824 l 436 824 b 313 822 394 864 343 853 b 325 710 283 790 294 740 b 410 486 388 650 419 578 b 436 824 410 486 529 733 z "},"\"":{"ha":831,"x_min":0,"x_max":0,"o":"m 140 274 l 140 274 b 183 204 176 274 183 249 b 140 135 183 161 176 135 b 128 136 136 135 131 135 l 128 272 b 140 274 132 274 136 274 z m 351 224 l 296 224 l 296 271 l 361 271 l 361 306 l 256 306 l 256 104 l 361 104 l 361 138 l 296 138 l 296 190 l 351 190 z m 138 101 l 138 101 b 224 204 200 101 224 133 b 139 308 224 274 201 308 b 88 303 125 308 106 306 l 88 104 b 138 101 106 101 126 101 z m 397 306 l 397 306 b 388 104 393 257 389 169 l 426 104 b 429 249 426 151 428 201 l 431 249 l 458 135 l 496 135 l 524 249 b 528 104 526 201 528 151 l 568 104 b 560 306 565 169 563 257 l 504 306 l 478 194 l 451 306 z m 669 101 l 669 101 b 744 204 725 101 744 133 b 669 308 744 275 725 308 b 596 204 614 308 596 275 b 669 101 596 133 614 101 z m 669 274 b 704 204 699 274 704 250 b 669 135 704 160 699 135 b 636 204 642 135 636 160 b 669 274 636 250 642 274 z m 656 689 l 656 689 b 439 429 540 689 439 429 b 669 529 497 486 569 518 b 742 601 699 533 742 558 b 656 689 742 631 728 689 z m 193 617 l 193 617 b 107 529 136 617 107 574 b 193 457 107 486 150 457 b 410 357 281 457 353 429 b 193 617 410 357 324 617 z m 436 824 l 436 824 b 313 822 394 864 343 853 b 325 710 283 790 294 740 b 410 486 388 650 419 578 b 436 824 410 486 529 733 z "},"#":{"ha":831,"x_min":0,"x_max":0,"o":"m 140 274 l 140 274 b 183 204 176 274 183 249 b 140 135 183 161 176 135 b 128 136 136 135 131 135 l 128 272 b 140 274 132 274 136 274 z m 351 224 l 296 224 l 296 271 l 361 271 l 361 306 l 256 306 l 256 104 l 361 104 l 361 138 l 296 138 l 296 190 l 351 190 z m 138 101 l 138 101 b 224 204 200 101 224 133 b 139 308 224 274 201 308 b 88 303 125 308 106 306 l 88 104 b 138 101 106 101 126 101 z m 397 306 l 397 306 b 388 104 393 257 389 169 l 426 104 b 429 249 426 151 428 201 l 431 249 l 458 135 l 496 135 l 524 249 b 528 104 526 201 528 151 l 568 104 b 560 306 565 169 563 257 l 504 306 l 478 194 l 451 306 z m 669 101 l 669 101 b 744 204 725 101 744 133 b 669 308 744 275 725 308 b 596 204 614 308 596 275 b 669 101 596 133 614 101 z m 669 274 b 704 204 699 274 704 250 b 669 135 704 160 699 135 b 636 204 642 135 636 160 b 669 274 636 250 642 274 z m 656 689 l 656 689 b 439 429 540 689 439 429 b 669 529 497 486 569 518 b 742 601 699 533 742 558 b 656 689 742 631 728 689 z m 193 617 l 193 617 b 107 529 136 617 107 574 b 193 457 107 486 150 457 b 410 357 281 457 353 429 b 193 617 410 357 324 617 z m 436 824 l 436 824 b 313 822 394 864 343 853 b 325 710 283 790 294 740 b 410 486 388 650 419 578 b 436 824 410 486 529 733 z "},"$":{"ha":831,"x_min":0,"x_max":0,"o":"m 140 274 l 140 274 b 183 204 176 274 183 249 b 140 135 183 161 176 135 b 128 136 136 135 131 135 l 128 272 b 140 274 132 274 136 274 z m 351 224 l 296 224 l 296 271 l 361 271 l 361 306 l 256 306 l 256 104 l 361 104 l 361 138 l 296 138 l 296 190 l 351 190 z m 138 101 l 138 101 b 224 204 200 101 224 133 b 139 308 224 274 201 308 b 88 303 125 308 106 306 l 88 104 b 138 101 106 101 126 101 z m 397 306 l 397 306 b 388 104 393 257 389 169 l 426 104 b 429 249 426 151 428 201 l 431 249 l 458 135 l 496 135 l 524 249 b 528 104 526 201 528 151 l 568 104 b 560 306 565 169 563 257 l 504 306 l 478 194 l 451 306 z m 669 101 l 669 101 b 744 204 725 101 744 133 b 669 308 744 275 725 308 b 596 204 614 308 596 275 b 669 101 596 133 614 101 z m 669 274 b 704 204 699 274 704 250 b 669 135 704 160 699 135 b 636 204 642 135 636 160 b 669 274 636 250 642 274 z m 656 689 l 656 689 b 439 429 540 689 439 429 b 669 529 497 486 569 518 b 742 601 699 533 742 558 b 656 689 742 631 728 689 z m 193 617 l 193 617 b 107 529 136 617 107 574 b 193 457 107 486 150 457 b 410 357 281 457 353 429 b 193 617 410 357 324 617 z m 436 824 l 436 824 b 313 822 394 864 343 853 b 325 710 283 790 294 740 b 410 486 388 650 419 578 b 436 824 410 486 529 733 z "},"%":{"ha":831,"x_min":0,"x_max":0,"o":"m 140 274 l 140 274 b 183 204 176 274 183 249 b 140 135 183 161 176 135 b 128 136 136 135 131 135 l 128 272 b 140 274 132 274 136 274 z m 351 224 l 296 224 l 296 271 l 361 271 l 361 306 l 256 306 l 256 104 l 361 104 l 361 138 l 296 138 l 296 190 l 351 190 z m 138 101 l 138 101 b 224 204 200 101 224 133 b 139 308 224 274 201 308 b 88 303 125 308 106 306 l 88 104 b 138 101 106 101 126 101 z m 397 306 l 397 306 b 388 104 393 257 389 169 l 426 104 b 429 249 426 151 428 201 l 431 249 l 458 135 l 496 135 l 524 249 b 528 104 526 201 528 151 l 568 104 b 560 306 565 169 563 257 l 504 306 l 478 194 l 451 306 z m 669 101 l 669 101 b 744 204 725 101 744 133 b 669 308 744 275 725 308 b 596 204 614 308 596 275 b 669 101 596 133 614 101 z m 669 274 b 704 204 699 274 704 250 b 669 135 704 160 699 135 b 636 204 642 135 636 160 b 669 274 636 250 642 274 z m 656 689 l 656 689 b 439 429 540 689 439 429 b 669 529 497 486 569 518 b 742 601 699 533 742 558 b 656 689 742 631 728 689 z m 193 617 l 193 617 b 107 529 136 617 107 574 b 193 457 107 486 150 457 b 410 357 281 457 353 429 b 193 617 410 357 324 617 z m 436 824 l 436 824 b 313 822 394 864 343 853 b 325 710 283 790 294 740 b 410 486 388 650 419 578 b 436 824 410 486 529 733 z "},"&":{"ha":831,"x_min":0,"x_max":0,"o":"m 140 274 l 140 274 b 183 204 176 274 183 249 b 140 135 183 161 176 135 b 128 136 136 135 131 135 l 128 272 b 140 274 132 274 136 274 z m 351 224 l 296 224 l 296 271 l 361 271 l 361 306 l 256 306 l 256 104 l 361 104 l 361 138 l 296 138 l 296 190 l 351 190 z m 138 101 l 138 101 b 224 204 200 101 224 133 b 139 308 224 274 201 308 b 88 303 125 308 106 306 l 88 104 b 138 101 106 101 126 101 z m 397 306 l 397 306 b 388 104 393 257 389 169 l 426 104 b 429 249 426 151 428 201 l 431 249 l 458 135 l 496 135 l 524 249 b 528 104 526 201 528 151 l 568 104 b 560 306 565 169 563 257 l 504 306 l 478 194 l 451 306 z m 669 101 l 669 101 b 744 204 725 101 744 133 b 669 308 744 275 725 308 b 596 204 614 308 596 275 b 669 101 596 133 614 101 z m 669 274 b 704 204 699 274 704 250 b 669 135 704 160 699 135 b 636 204 642 135 636 160 b 669 274 636 250 642 274 z m 656 689 l 656 689 b 439 429 540 689 439 429 b 669 529 497 486 569 518 b 742 601 699 533 742 558 b 656 689 742 631 728 689 z m 193 617 l 193 617 b 107 529 136 617 107 574 b 193 457 107 486 150 457 b 410 357 281 457 353 429 b 193 617 410 357 324 617 z m 436 824 l 436 824 b 313 822 394 864 343 853 b 325 710 283 790 294 740 b 410 486 388 650 419 578 b 436 824 410 486 529 733 z "},"'":{"ha":831,"x_min":0,"x_max":0,"o":"m 140 274 l 140 274 b 183 204 176 274 183 249 b 140 135 183 161 176 135 b 128 136 136 135 131 135 l 128 272 b 140 274 132 274 136 274 z m 351 224 l 296 224 l 296 271 l 361 271 l 361 306 l 256 306 l 256 104 l 361 104 l 361 138 l 296 138 l 296 190 l 351 190 z m 138 101 l 138 101 b 224 204 200 101 224 133 b 139 308 224 274 201 308 b 88 303 125 308 106 306 l 88 104 b 138 101 106 101 126 101 z m 397 306 l 397 306 b 388 104 393 257 389 169 l 426 104 b 429 249 426 151 428 201 l 431 249 l 458 135 l 496 135 l 524 249 b 528 104 526 201 528 151 l 568 104 b 560 306 565 169 563 257 l 504 306 l 478 194 l 451 306 z m 669 101 l 669 101 b 744 204 725 101 744 133 b 669 308 744 275 725 308 b 596 204 614 308 596 275 b 669 101 596 133 614 101 z m 669 274 b 704 204 699 274 704 250 b 669 135 704 160 699 135 b 636 204 642 135 636 160 b 669 274 636 250 642 274 z m 656 689 l 656 689 b 439 429 540 689 439 429 b 669 529 497 486 569 518 b 742 601 699 533 742 558 b 656 689 742 631 728 689 z m 193 617 l 193 617 b 107 529 136 617 107 574 b 193 457 107 486 150 457 b 410 357 281 457 353 429 b 193 617 410 357 324 617 z m 436 824 l 436 824 b 313 822 394 864 343 853 b 325 710 283 790 294 740 b 410 486 388 650 419 578 b 436 824 410 486 529 733 z "},"(":{"ha":831,"x_min":0,"x_max":0,"o":"m 140 274 l 140 274 b 183 204 176 274 183 249 b 140 135 183 161 176 135 b 128 136 136 135 131 135 l 128 272 b 140 274 132 274 136 274 z m 351 224 l 296 224 l 296 271 l 361 271 l 361 306 l 256 306 l 256 104 l 361 104 l 361 138 l 296 138 l 296 190 l 351 190 z m 138 101 l 138 101 b 224 204 200 101 224 133 b 139 308 224 274 201 308 b 88 303 125 308 106 306 l 88 104 b 138 101 106 101 126 101 z m 397 306 l 397 306 b 388 104 393 257 389 169 l 426 104 b 429 249 426 151 428 201 l 431 249 l 458 135 l 496 135 l 524 249 b 528 104 526 201 528 151 l 568 104 b 560 306 565 169 563 257 l 504 306 l 478 194 l 451 306 z m 669 101 l 669 101 b 744 204 725 101 744 133 b 669 308 744 275 725 308 b 596 204 614 308 596 275 b 669 101 596 133 614 101 z m 669 274 b 704 204 699 274 704 250 b 669 135 704 160 699 135 b 636 204 642 135 636 160 b 669 274 636 250 642 274 z m 656 689 l 656 689 b 439 429 540 689 439 429 b 669 529 497 486 569 518 b 742 601 699 533 742 558 b 656 689 742 631 728 689 z m 193 617 l 193 617 b 107 529 136 617 107 574 b 193 457 107 486 150 457 b 410 357 281 457 353 429 b 193 617 410 357 324 617 z m 436 824 l 436 824 b 313 822 394 864 343 853 b 325 710 283 790 294 740 b 410 486 388 650 419 578 b 436 824 410 486 529 733 z "},")":{"ha":831,"x_min":0,"x_max":0,"o":"m 140 274 l 140 274 b 183 204 176 274 183 249 b 140 135 183 161 176 135 b 128 136 136 135 131 135 l 128 272 b 140 274 132 274 136 274 z m 351 224 l 296 224 l 296 271 l 361 271 l 361 306 l 256 306 l 256 104 l 361 104 l 361 138 l 296 138 l 296 190 l 351 190 z m 138 101 l 138 101 b 224 204 200 101 224 133 b 139 308 224 274 201 308 b 88 303 125 308 106 306 l 88 104 b 138 101 106 101 126 101 z m 397 306 l 397 306 b 388 104 393 257 389 169 l 426 104 b 429 249 426 151 428 201 l 431 249 l 458 135 l 496 135 l 524 249 b 528 104 526 201 528 151 l 568 104 b 560 306 565 169 563 257 l 504 306 l 478 194 l 451 306 z m 669 101 l 669 101 b 744 204 725 101 744 133 b 669 308 744 275 725 308 b 596 204 614 308 596 275 b 669 101 596 133 614 101 z m 669 274 b 704 204 699 274 704 250 b 669 135 704 160 699 135 b 636 204 642 135 636 160 b 669 274 636 250 642 274 z m 656 689 l 656 689 b 439 429 540 689 439 429 b 669 529 497 486 569 518 b 742 601 699 533 742 558 b 656 689 742 631 728 689 z m 193 617 l 193 617 b 107 529 136 617 107 574 b 193 457 107 486 150 457 b 410 357 281 457 353 429 b 193 617 410 357 324 617 z m 436 824 l 436 824 b 313 822 394 864 343 853 b 325 710 283 790 294 740 b 410 486 388 650 419 578 b 436 824 410 486 529 733 z "},"*":{"ha":831,"x_min":0,"x_max":0,"o":"m 140 274 l 140 274 b 183 204 176 274 183 249 b 140 135 183 161 176 135 b 128 136 136 135 131 135 l 128 272 b 140 274 132 274 136 274 z m 351 224 l 296 224 l 296 271 l 361 271 l 361 306 l 256 306 l 256 104 l 361 104 l 361 138 l 296 138 l 296 190 l 351 190 z m 138 101 l 138 101 b 224 204 200 101 224 133 b 139 308 224 274 201 308 b 88 303 125 308 106 306 l 88 104 b 138 101 106 101 126 101 z m 397 306 l 397 306 b 388 104 393 257 389 169 l 426 104 b 429 249 426 151 428 201 l 431 249 l 458 135 l 496 135 l 524 249 b 528 104 526 201 528 151 l 568 104 b 560 306 565 169 563 257 l 504 306 l 478 194 l 451 306 z m 669 101 l 669 101 b 744 204 725 101 744 133 b 669 308 744 275 725 308 b 596 204 614 308 596 275 b 669 101 596 133 614 101 z m 669 274 b 704 204 699 274 704 250 b 669 135 704 160 699 135 b 636 204 642 135 636 160 b 669 274 636 250 642 274 z m 656 689 l 656 689 b 439 429 540 689 439 429 b 669 529 497 486 569 518 b 742 601 699 533 742 558 b 656 689 742 631 728 689 z m 193 617 l 193 617 b 107 529 136 617 107 574 b 193 457 107 486 150 457 b 410 357 281 457 353 429 b 193 617 410 357 324 617 z m 436 824 l 436 824 b 313 822 394 864 343 853 b 325 710 283 790 294 740 b 410 486 388 650 419 578 b 436 824 410 486 529 733 z "},"+":{"ha":831,"x_min":0,"x_max":0,"o":"m 140 274 l 140 274 b 183 204 176 274 183 249 b 140 135 183 161 176 135 b 128 136 136 135 131 135 l 128 272 b 140 274 132 274 136 274 z m 351 224 l 296 224 l 296 271 l 361 271 l 361 306 l 256 306 l 256 104 l 361 104 l 361 138 l 296 138 l 296 190 l 351 190 z m 138 101 l 138 101 b 224 204 200 101 224 133 b 139 308 224 274 201 308 b 88 303 125 308 106 306 l 88 104 b 138 101 106 101 126 101 z m 397 306 l 397 306 b 388 104 393 257 389 169 l 426 104 b 429 249 426 151 428 201 l 431 249 l 458 135 l 496 135 l 524 249 b 528 104 526 201 528 151 l 568 104 b 560 306 565 169 563 257 l 504 306 l 478 194 l 451 306 z m 669 101 l 669 101 b 744 204 725 101 744 133 b 669 308 744 275 725 308 b 596 204 614 308 596 275 b 669 101 596 133 614 101 z m 669 274 b 704 204 699 274 704 250 b 669 135 704 160 699 135 b 636 204 642 135 636 160 b 669 274 636 250 642 274 z m 656 689 l 656 689 b 439 429 540 689 439 429 b 669 529 497 486 569 518 b 742 601 699 533 742 558 b 656 689 742 631 728 689 z m 193 617 l 193 617 b 107 529 136 617 107 574 b 193 457 107 486 150 457 b 410 357 281 457 353 429 b 193 617 410 357 324 617 z m 436 824 l 436 824 b 313 822 394 864 343 853 b 325 710 283 790 294 740 b 410 486 388 650 419 578 b 436 824 410 486 529 733 z "},",":{"ha":201,"x_min":0,"x_max":0,"o":"m 28 0 l 85 0 l 65 -210 l 121 -210 l 174 14 l 174 161 l 28 161 z "},"-":{"ha":831,"x_min":0,"x_max":0,"o":"m 140 274 l 140 274 b 183 204 176 274 183 249 b 140 135 183 161 176 135 b 128 136 136 135 131 135 l 128 272 b 140 274 132 274 136 274 z m 351 224 l 296 224 l 296 271 l 361 271 l 361 306 l 256 306 l 256 104 l 361 104 l 361 138 l 296 138 l 296 190 l 351 190 z m 138 101 l 138 101 b 224 204 200 101 224 133 b 139 308 224 274 201 308 b 88 303 125 308 106 306 l 88 104 b 138 101 106 101 126 101 z m 397 306 l 397 306 b 388 104 393 257 389 169 l 426 104 b 429 249 426 151 428 201 l 431 249 l 458 135 l 496 135 l 524 249 b 528 104 526 201 528 151 l 568 104 b 560 306 565 169 563 257 l 504 306 l 478 194 l 451 306 z m 669 101 l 669 101 b 744 204 725 101 744 133 b 669 308 744 275 725 308 b 596 204 614 308 596 275 b 669 101 596 133 614 101 z m 669 274 b 704 204 699 274 704 250 b 669 135 704 160 699 135 b 636 204 642 135 636 160 b 669 274 636 250 642 274 z m 656 689 l 656 689 b 439 429 540 689 439 429 b 669 529 497 486 569 518 b 742 601 699 533 742 558 b 656 689 742 631 728 689 z m 193 617 l 193 617 b 107 529 136 617 107 574 b 193 457 107 486 150 457 b 410 357 281 457 353 429 b 193 617 410 357 324 617 z m 436 824 l 436 824 b 313 822 394 864 343 853 b 325 710 283 790 294 740 b 410 486 388 650 419 578 b 436 824 410 486 529 733 z "},".":{"ha":203,"x_min":0,"x_max":0,"o":"m 29 0 l 175 0 l 175 161 l 29 161 z "},"/":{"ha":831,"x_min":0,"x_max":0,"o":"m 140 274 l 140 274 b 183 204 176 274 183 249 b 140 135 183 161 176 135 b 128 136 136 135 131 135 l 128 272 b 140 274 132 274 136 274 z m 351 224 l 296 224 l 296 271 l 361 271 l 361 306 l 256 306 l 256 104 l 361 104 l 361 138 l 296 138 l 296 190 l 351 190 z m 138 101 l 138 101 b 224 204 200 101 224 133 b 139 308 224 274 201 308 b 88 303 125 308 106 306 l 88 104 b 138 101 106 101 126 101 z m 397 306 l 397 306 b 388 104 393 257 389 169 l 426 104 b 429 249 426 151 428 201 l 431 249 l 458 135 l 496 135 l 524 249 b 528 104 526 201 528 151 l 568 104 b 560 306 565 169 563 257 l 504 306 l 478 194 l 451 306 z m 669 101 l 669 101 b 744 204 725 101 744 133 b 669 308 744 275 725 308 b 596 204 614 308 596 275 b 669 101 596 133 614 101 z m 669 274 b 704 204 699 274 704 250 b 669 135 704 160 699 135 b 636 204 642 135 636 160 b 669 274 636 250 642 274 z m 656 689 l 656 689 b 439 429 540 689 439 429 b 669 529 497 486 569 518 b 742 601 699 533 742 558 b 656 689 742 631 728 689 z m 193 617 l 193 617 b 107 529 136 617 107 574 b 193 457 107 486 150 457 b 410 357 281 457 353 429 b 193 617 410 357 324 617 z m 436 824 l 436 824 b 313 822 394 864 343 853 b 325 710 283 790 294 740 b 410 486 388 650 419 578 b 436 824 410 486 529 733 z "},":":{"ha":203,"x_min":0,"x_max":0,"o":"m 29 319 l 175 319 l 175 481 l 29 481 z m 29 0 l 175 0 l 175 161 l 29 161 z "},";":{"ha":203,"x_min":0,"x_max":0,"o":"m 29 319 l 175 319 l 175 481 l 29 481 z m 28 0 l 85 0 l 65 -210 l 121 -210 l 174 14 l 174 161 l 28 161 z "},"<":{"ha":831,"x_min":0,"x_max":0,"o":"m 140 274 l 140 274 b 183 204 176 274 183 249 b 140 135 183 161 176 135 b 128 136 136 135 131 135 l 128 272 b 140 274 132 274 136 274 z m 351 224 l 296 224 l 296 271 l 361 271 l 361 306 l 256 306 l 256 104 l 361 104 l 361 138 l 296 138 l 296 190 l 351 190 z m 138 101 l 138 101 b 224 204 200 101 224 133 b 139 308 224 274 201 308 b 88 303 125 308 106 306 l 88 104 b 138 101 106 101 126 101 z m 397 306 l 397 306 b 388 104 393 257 389 169 l 426 104 b 429 249 426 151 428 201 l 431 249 l 458 135 l 496 135 l 524 249 b 528 104 526 201 528 151 l 568 104 b 560 306 565 169 563 257 l 504 306 l 478 194 l 451 306 z m 669 101 l 669 101 b 744 204 725 101 744 133 b 669 308 744 275 725 308 b 596 204 614 308 596 275 b 669 101 596 133 614 101 z m 669 274 b 704 204 699 274 704 250 b 669 135 704 160 699 135 b 636 204 642 135 636 160 b 669 274 636 250 642 274 z m 656 689 l 656 689 b 439 429 540 689 439 429 b 669 529 497 486 569 518 b 742 601 699 533 742 558 b 656 689 742 631 728 689 z m 193 617 l 193 617 b 107 529 136 617 107 574 b 193 457 107 486 150 457 b 410 357 281 457 353 429 b 193 617 410 357 324 617 z m 436 824 l 436 824 b 313 822 394 864 343 853 b 325 710 283 790 294 740 b 410 486 388 650 419 578 b 436 824 410 486 529 733 z "},"=":{"ha":831,"x_min":0,"x_max":0,"o":"m 140 274 l 140 274 b 183 204 176 274 183 249 b 140 135 183 161 176 135 b 128 136 136 135 131 135 l 128 272 b 140 274 132 274 136 274 z m 351 224 l 296 224 l 296 271 l 361 271 l 361 306 l 256 306 l 256 104 l 361 104 l 361 138 l 296 138 l 296 190 l 351 190 z m 138 101 l 138 101 b 224 204 200 101 224 133 b 139 308 224 274 201 308 b 88 303 125 308 106 306 l 88 104 b 138 101 106 101 126 101 z m 397 306 l 397 306 b 388 104 393 257 389 169 l 426 104 b 429 249 426 151 428 201 l 431 249 l 458 135 l 496 135 l 524 249 b 528 104 526 201 528 151 l 568 104 b 560 306 565 169 563 257 l 504 306 l 478 194 l 451 306 z m 669 101 l 669 101 b 744 204 725 101 744 133 b 669 308 744 275 725 308 b 596 204 614 308 596 275 b 669 101 596 133 614 101 z m 669 274 b 704 204 699 274 704 250 b 669 135 704 160 699 135 b 636 204 642 135 636 160 b 669 274 636 250 642 274 z m 656 689 l 656 689 b 439 429 540 689 439 429 b 669 529 497 486 569 518 b 742 601 699 533 742 558 b 656 689 742 631 728 689 z m 193 617 l 193 617 b 107 529 136 617 107 574 b 193 457 107 486 150 457 b 410 357 281 457 353 429 b 193 617 410 357 324 617 z m 436 824 l 436 824 b 313 822 394 864 343 853 b 325 710 283 790 294 740 b 410 486 388 650 419 578 b 436 824 410 486 529 733 z "},">":{"ha":831,"x_min":0,"x_max":0,"o":"m 140 274 l 140 274 b 183 204 176 274 183 249 b 140 135 183 161 176 135 b 128 136 136 135 131 135 l 128 272 b 140 274 132 274 136 274 z m 351 224 l 296 224 l 296 271 l 361 271 l 361 306 l 256 306 l 256 104 l 361 104 l 361 138 l 296 138 l 296 190 l 351 190 z m 138 101 l 138 101 b 224 204 200 101 224 133 b 139 308 224 274 201 308 b 88 303 125 308 106 306 l 88 104 b 138 101 106 101 126 101 z m 397 306 l 397 306 b 388 104 393 257 389 169 l 426 104 b 429 249 426 151 428 201 l 431 249 l 458 135 l 496 135 l 524 249 b 528 104 526 201 528 151 l 568 104 b 560 306 565 169 563 257 l 504 306 l 478 194 l 451 306 z m 669 101 l 669 101 b 744 204 725 101 744 133 b 669 308 744 275 725 308 b 596 204 614 308 596 275 b 669 101 596 133 614 101 z m 669 274 b 704 204 699 274 704 250 b 669 135 704 160 699 135 b 636 204 642 135 636 160 b 669 274 636 250 642 274 z m 656 689 l 656 689 b 439 429 540 689 439 429 b 669 529 497 486 569 518 b 742 601 699 533 742 558 b 656 689 742 631 728 689 z m 193 617 l 193 617 b 107 529 136 617 107 574 b 193 457 107 486 150 457 b 410 357 281 457 353 429 b 193 617 410 357 324 617 z m 436 824 l 436 824 b 313 822 394 864 343 853 b 325 710 283 790 294 740 b 410 486 388 650 419 578 b 436 824 410 486 529 733 z "},"?":{"ha":382,"x_min":0,"x_max":0,"o":"m 104 264 l 222 264 b 361 638 222 399 361 417 l 361 814 b 189 986 361 926 301 986 b 21 814 74 986 15 926 l 31 617 l 176 617 l 165 808 b 189 847 164 833 172 847 b 214 808 206 847 214 833 l 214 650 b 104 264 214 493 104 467 z m 89 0 l 235 0 l 235 161 l 89 161 z "},"@":{"ha":831,"x_min":0,"x_max":0,"o":"m 140 274 l 140 274 b 183 204 176 274 183 249 b 140 135 183 161 176 135 b 128 136 136 135 131 135 l 128 272 b 140 274 132 274 136 274 z m 351 224 l 296 224 l 296 271 l 361 271 l 361 306 l 256 306 l 256 104 l 361 104 l 361 138 l 296 138 l 296 190 l 351 190 z m 138 101 l 138 101 b 224 204 200 101 224 133 b 139 308 224 274 201 308 b 88 303 125 308 106 306 l 88 104 b 138 101 106 101 126 101 z m 397 306 l 397 306 b 388 104 393 257 389 169 l 426 104 b 429 249 426 151 428 201 l 431 249 l 458 135 l 496 135 l 524 249 b 528 104 526 201 528 151 l 568 104 b 560 306 565 169 563 257 l 504 306 l 478 194 l 451 306 z m 669 101 l 669 101 b 744 204 725 101 744 133 b 669 308 744 275 725 308 b 596 204 614 308 596 275 b 669 101 596 133 614 101 z m 669 274 b 704 204 699 274 704 250 b 669 135 704 160 699 135 b 636 204 642 135 636 160 b 669 274 636 250 642 274 z m 656 689 l 656 689 b 439 429 540 689 439 429 b 669 529 497 486 569 518 b 742 601 699 533 742 558 b 656 689 742 631 728 689 z m 193 617 l 193 617 b 107 529 136 617 107 574 b 193 457 107 486 150 457 b 410 357 281 457 353 429 b 193 617 410 357 324 617 z m 436 824 l 436 824 b 313 822 394 864 343 853 b 325 710 283 790 294 740 b 410 486 388 650 419 578 b 436 824 410 486 529 733 z "},"A":{"ha":396,"x_min":0,"x_max":0,"o":"m 246 0 l 389 0 l 340 972 l 57 972 l 7 0 l 150 0 l 165 301 l 231 301 z m 174 440 l 185 664 l 186 833 l 210 833 l 211 664 l 222 440 z "},"B":{"ha":378,"x_min":0,"x_max":0,"o":"m 21 0 l 193 0 b 364 169 304 0 364 60 l 364 344 b 240 508 364 451 321 508 l 217 508 l 217 529 l 240 529 b 361 693 319 529 361 586 l 361 803 b 190 972 361 913 301 972 l 21 972 z m 168 550 l 168 833 l 190 833 b 215 797 207 833 215 821 l 215 589 b 190 550 215 564 207 550 z m 168 139 l 168 425 l 193 425 b 218 386 210 425 218 411 l 218 175 b 193 139 218 151 210 139 z "},"C":{"ha":378,"x_min":0,"x_max":0,"o":"m 193 -14 b 361 158 303 -14 361 46 l 361 411 l 217 411 l 217 164 b 193 125 217 139 208 125 b 168 164 176 125 168 139 l 168 808 b 193 847 168 833 176 847 b 217 808 210 847 218 833 l 206 561 l 351 561 l 361 814 b 193 986 365 926 307 986 b 21 814 81 986 21 926 l 21 158 b 193 -14 21 46 81 -14 z "},"D":{"ha":382,"x_min":0,"x_max":0,"o":"m 21 0 l 190 0 b 361 169 301 0 361 60 l 361 803 b 190 972 361 913 301 972 l 21 972 z m 165 139 l 165 833 l 190 833 b 215 797 207 833 215 821 l 215 175 b 190 139 215 151 207 139 z "},"E":{"ha":307,"x_min":0,"x_max":0,"o":"m 21 0 l 300 0 l 300 139 l 167 139 l 167 418 l 286 418 l 286 557 l 167 557 l 167 833 l 300 833 l 300 972 l 21 972 z "},"F":{"ha":314,"x_min":0,"x_max":0,"o":"m 300 833 l 300 972 l 21 972 l 21 0 l 167 0 l 167 418 l 286 418 l 286 557 l 167 557 l 167 833 z "},"G":{"ha":379,"x_min":0,"x_max":0,"o":"m 138 -14 b 238 181 211 -14 246 54 l 261 181 l 269 0 l 361 0 l 361 513 l 193 513 l 193 367 l 219 367 l 219 164 b 192 125 219 139 210 125 b 167 164 175 125 167 139 l 167 808 b 192 847 167 833 175 847 b 215 808 208 847 217 833 l 206 561 l 351 561 l 361 814 b 193 986 365 926 307 986 b 21 814 81 986 21 926 l 21 169 b 138 -14 19 50 60 -14 z "},"H":{"ha":390,"x_min":0,"x_max":0,"o":"m 224 972 l 224 579 l 167 579 l 167 972 l 21 972 l 21 0 l 167 0 l 167 440 l 224 440 l 224 0 l 369 0 l 369 972 z "},"I":{"ha":188,"x_min":0,"x_max":0,"o":"m 21 0 l 167 0 l 167 972 l 21 972 z "},"J":{"ha":382,"x_min":0,"x_max":0,"o":"m 189 -14 b 361 158 301 -14 361 46 l 361 972 l 21 972 l 21 826 l 214 826 l 214 164 b 189 125 214 139 206 125 b 165 164 172 125 164 139 l 176 536 l 31 536 l 21 158 b 189 -14 18 46 76 -14 z "},"K":{"ha":375,"x_min":0,"x_max":0,"o":"m 21 0 l 168 0 l 168 425 l 190 425 l 222 0 l 368 0 l 324 508 l 203 508 l 203 529 l 240 529 b 347 686 306 529 342 583 l 361 972 l 215 972 l 201 589 b 176 550 200 564 192 550 l 168 550 l 168 972 l 21 972 z "},"L":{"ha":286,"x_min":0,"x_max":0,"o":"m 167 139 l 167 972 l 21 972 l 21 0 l 286 0 l 286 139 z "},"M":{"ha":576,"x_min":0,"x_max":0,"o":"m 21 0 l 167 0 l 150 664 l 143 833 l 167 833 l 210 14 l 367 14 l 410 833 l 433 833 l 426 664 l 410 0 l 556 0 l 556 972 l 315 972 l 300 153 l 276 153 l 254 972 l 21 972 z "},"N":{"ha":461,"x_min":0,"x_max":0,"o":"m 21 0 l 167 0 l 139 664 l 129 833 l 153 833 l 222 0 l 440 0 l 440 972 l 293 972 l 310 308 l 317 139 l 293 139 l 239 972 l 21 972 z "},"O":{"ha":383,"x_min":0,"x_max":0,"o":"m 192 -14 b 363 157 303 -14 363 46 l 363 814 b 192 986 363 926 303 986 b 21 814 81 986 21 926 l 21 157 b 192 -14 21 46 81 -14 z m 192 125 b 167 164 175 125 167 139 l 167 808 b 192 847 167 833 175 847 b 217 808 208 847 217 833 l 217 164 b 192 125 217 139 208 125 z "},"P":{"ha":375,"x_min":0,"x_max":0,"o":"m 190 972 l 21 972 l 21 0 l 167 0 l 167 250 l 190 250 b 361 417 301 250 361 308 l 361 803 b 190 972 361 913 301 972 z m 215 424 b 190 389 215 401 207 389 l 167 389 l 167 833 l 190 833 b 215 797 207 833 215 821 z "},"Q":{"ha":383,"x_min":0,"x_max":0,"o":"m 363 304 l 363 814 b 192 986 363 926 303 986 b 21 814 81 986 21 926 l 21 304 b 92 157 21 233 46 183 l 92 136 b 42 139 75 138 58 139 l 42 0 b 343 -42 142 0 243 -42 l 343 97 b 210 114 299 97 254 106 l 210 133 b 363 304 310 140 363 199 z m 167 808 b 192 847 167 833 175 847 b 217 808 208 847 217 833 l 217 278 b 192 239 217 253 208 239 b 167 278 175 239 167 253 z "},"R":{"ha":375,"x_min":0,"x_max":0,"o":"m 21 0 l 168 0 l 168 406 l 190 406 l 222 0 l 368 0 l 321 488 l 231 488 l 231 508 l 240 508 b 361 675 319 508 361 567 l 361 803 b 190 972 361 913 301 972 l 21 972 z m 168 531 l 168 833 l 190 833 b 215 797 207 833 215 821 l 215 569 b 190 531 215 544 207 531 z "},"S":{"ha":374,"x_min":0,"x_max":0,"o":"m 185 -14 b 357 158 297 -14 357 46 l 357 286 b 164 692 357 508 164 535 l 164 808 b 189 847 164 833 172 847 b 213 808 206 847 214 833 l 201 617 l 347 617 l 357 814 b 189 986 363 926 304 986 b 17 814 76 986 17 926 l 17 679 b 210 274 17 458 210 440 l 210 164 b 185 125 210 139 201 125 b 161 164 169 125 161 139 l 161 342 l 17 342 l 17 158 b 185 -14 17 46 75 -14 z "},"T":{"ha":315,"x_min":0,"x_max":0,"o":"m 308 972 l 7 972 l 7 833 l 85 833 l 85 0 l 231 0 l 231 833 l 308 833 z "},"U":{"ha":382,"x_min":0,"x_max":0,"o":"m 138 -14 b 238 181 211 -14 246 54 l 261 181 l 269 0 l 361 0 l 361 972 l 215 972 l 215 164 b 192 125 215 139 207 125 b 167 164 175 125 167 139 l 178 972 l 31 972 l 21 169 b 138 -14 19 50 60 -14 z "},"V":{"ha":396,"x_min":0,"x_max":0,"o":"m 57 0 l 340 0 l 389 972 l 246 972 l 211 308 l 210 139 l 186 139 l 185 308 l 150 972 l 7 972 z "},"W":{"ha":636,"x_min":0,"x_max":0,"o":"m 43 0 l 285 0 l 306 664 l 307 833 l 331 833 l 332 664 l 353 0 l 594 0 l 629 972 l 481 972 l 472 308 l 471 139 l 447 139 l 446 308 l 418 972 l 218 972 l 190 308 l 189 139 l 165 139 l 164 308 l 156 972 l 7 972 z "},"X":{"ha":381,"x_min":0,"x_max":0,"o":"m 7 0 l 153 0 l 167 386 b 192 428 168 413 176 428 l 203 428 l 221 0 l 367 0 l 335 517 l 215 517 l 215 538 l 254 538 b 361 704 318 538 356 596 l 374 972 l 228 972 l 214 597 b 189 558 213 572 204 558 l 178 558 l 160 972 l 14 972 l 43 469 l 165 469 l 165 449 l 128 449 b 21 283 64 449 26 390 z "},"Y":{"ha":374,"x_min":0,"x_max":0,"o":"m 222 972 l 200 558 l 199 407 l 175 407 l 172 558 l 153 972 l 8 972 l 51 332 l 114 332 l 114 0 l 260 0 l 260 344 b 335 515 303 369 329 428 l 365 972 z "},"Z":{"ha":356,"x_min":0,"x_max":0,"o":"m 154 139 l 342 826 l 342 972 l 14 972 l 14 833 l 194 833 l 7 143 l 7 0 l 344 0 l 344 139 z "},"[":{"ha":831,"x_min":0,"x_max":0,"o":"m 140 274 l 140 274 b 183 204 176 274 183 249 b 140 135 183 161 176 135 b 128 136 136 135 131 135 l 128 272 b 140 274 132 274 136 274 z m 351 224 l 296 224 l 296 271 l 361 271 l 361 306 l 256 306 l 256 104 l 361 104 l 361 138 l 296 138 l 296 190 l 351 190 z m 138 101 l 138 101 b 224 204 200 101 224 133 b 139 308 224 274 201 308 b 88 303 125 308 106 306 l 88 104 b 138 101 106 101 126 101 z m 397 306 l 397 306 b 388 104 393 257 389 169 l 426 104 b 429 249 426 151 428 201 l 431 249 l 458 135 l 496 135 l 524 249 b 528 104 526 201 528 151 l 568 104 b 560 306 565 169 563 257 l 504 306 l 478 194 l 451 306 z m 669 101 l 669 101 b 744 204 725 101 744 133 b 669 308 744 275 725 308 b 596 204 614 308 596 275 b 669 101 596 133 614 101 z m 669 274 b 704 204 699 274 704 250 b 669 135 704 160 699 135 b 636 204 642 135 636 160 b 669 274 636 250 642 274 z m 656 689 l 656 689 b 439 429 540 689 439 429 b 669 529 497 486 569 518 b 742 601 699 533 742 558 b 656 689 742 631 728 689 z m 193 617 l 193 617 b 107 529 136 617 107 574 b 193 457 107 486 150 457 b 410 357 281 457 353 429 b 193 617 410 357 324 617 z m 436 824 l 436 824 b 313 822 394 864 343 853 b 325 710 283 790 294 740 b 410 486 388 650 419 578 b 436 824 410 486 529 733 z "},"\\":{"ha":831,"x_min":0,"x_max":0,"o":"m 140 274 l 140 274 b 183 204 176 274 183 249 b 140 135 183 161 176 135 b 128 136 136 135 131 135 l 128 272 b 140 274 132 274 136 274 z m 351 224 l 296 224 l 296 271 l 361 271 l 361 306 l 256 306 l 256 104 l 361 104 l 361 138 l 296 138 l 296 190 l 351 190 z m 138 101 l 138 101 b 224 204 200 101 224 133 b 139 308 224 274 201 308 b 88 303 125 308 106 306 l 88 104 b 138 101 106 101 126 101 z m 397 306 l 397 306 b 388 104 393 257 389 169 l 426 104 b 429 249 426 151 428 201 l 431 249 l 458 135 l 496 135 l 524 249 b 528 104 526 201 528 151 l 568 104 b 560 306 565 169 563 257 l 504 306 l 478 194 l 451 306 z m 669 101 l 669 101 b 744 204 725 101 744 133 b 669 308 744 275 725 308 b 596 204 614 308 596 275 b 669 101 596 133 614 101 z m 669 274 b 704 204 699 274 704 250 b 669 135 704 160 699 135 b 636 204 642 135 636 160 b 669 274 636 250 642 274 z m 656 689 l 656 689 b 439 429 540 689 439 429 b 669 529 497 486 569 518 b 742 601 699 533 742 558 b 656 689 742 631 728 689 z m 193 617 l 193 617 b 107 529 136 617 107 574 b 193 457 107 486 150 457 b 410 357 281 457 353 429 b 193 617 410 357 324 617 z m 436 824 l 436 824 b 313 822 394 864 343 853 b 325 710 283 790 294 740 b 410 486 388 650 419 578 b 436 824 410 486 529 733 z "},"]":{"ha":831,"x_min":0,"x_max":0,"o":"m 140 274 l 140 274 b 183 204 176 274 183 249 b 140 135 183 161 176 135 b 128 136 136 135 131 135 l 128 272 b 140 274 132 274 136 274 z m 351 224 l 296 224 l 296 271 l 361 271 l 361 306 l 256 306 l 256 104 l 361 104 l 361 138 l 296 138 l 296 190 l 351 190 z m 138 101 l 138 101 b 224 204 200 101 224 133 b 139 308 224 274 201 308 b 88 303 125 308 106 306 l 88 104 b 138 101 106 101 126 101 z m 397 306 l 397 306 b 388 104 393 257 389 169 l 426 104 b 429 249 426 151 428 201 l 431 249 l 458 135 l 496 135 l 524 249 b 528 104 526 201 528 151 l 568 104 b 560 306 565 169 563 257 l 504 306 l 478 194 l 451 306 z m 669 101 l 669 101 b 744 204 725 101 744 133 b 669 308 744 275 725 308 b 596 204 614 308 596 275 b 669 101 596 133 614 101 z m 669 274 b 704 204 699 274 704 250 b 669 135 704 160 699 135 b 636 204 642 135 636 160 b 669 274 636 250 642 274 z m 656 689 l 656 689 b 439 429 540 689 439 429 b 669 529 497 486 569 518 b 742 601 699 533 742 558 b 656 689 742 631 728 689 z m 193 617 l 193 617 b 107 529 136 617 107 574 b 193 457 107 486 150 457 b 410 357 281 457 353 429 b 193 617 410 357 324 617 z m 436 824 l 436 824 b 313 822 394 864 343 853 b 325 710 283 790 294 740 b 410 486 388 650 419 578 b 436 824 410 486 529 733 z "},"^":{"ha":831,"x_min":0,"x_max":0,"o":"m 140 274 l 140 274 b 183 204 176 274 183 249 b 140 135 183 161 176 135 b 128 136 136 135 131 135 l 128 272 b 140 274 132 274 136 274 z m 351 224 l 296 224 l 296 271 l 361 271 l 361 306 l 256 306 l 256 104 l 361 104 l 361 138 l 296 138 l 296 190 l 351 190 z m 138 101 l 138 101 b 224 204 200 101 224 133 b 139 308 224 274 201 308 b 88 303 125 308 106 306 l 88 104 b 138 101 106 101 126 101 z m 397 306 l 397 306 b 388 104 393 257 389 169 l 426 104 b 429 249 426 151 428 201 l 431 249 l 458 135 l 496 135 l 524 249 b 528 104 526 201 528 151 l 568 104 b 560 306 565 169 563 257 l 504 306 l 478 194 l 451 306 z m 669 101 l 669 101 b 744 204 725 101 744 133 b 669 308 744 275 725 308 b 596 204 614 308 596 275 b 669 101 596 133 614 101 z m 669 274 b 704 204 699 274 704 250 b 669 135 704 160 699 135 b 636 204 642 135 636 160 b 669 274 636 250 642 274 z m 656 689 l 656 689 b 439 429 540 689 439 429 b 669 529 497 486 569 518 b 742 601 699 533 742 558 b 656 689 742 631 728 689 z m 193 617 l 193 617 b 107 529 136 617 107 574 b 193 457 107 486 150 457 b 410 357 281 457 353 429 b 193 617 410 357 324 617 z m 436 824 l 436 824 b 313 822 394 864 343 853 b 325 710 283 790 294 740 b 410 486 388 650 419 578 b 436 824 410 486 529 733 z "},"_":{"ha":831,"x_min":0,"x_max":0,"o":"m 140 274 l 140 274 b 183 204 176 274 183 249 b 140 135 183 161 176 135 b 128 136 136 135 131 135 l 128 272 b 140 274 132 274 136 274 z m 351 224 l 296 224 l 296 271 l 361 271 l 361 306 l 256 306 l 256 104 l 361 104 l 361 138 l 296 138 l 296 190 l 351 190 z m 138 101 l 138 101 b 224 204 200 101 224 133 b 139 308 224 274 201 308 b 88 303 125 308 106 306 l 88 104 b 138 101 106 101 126 101 z m 397 306 l 397 306 b 388 104 393 257 389 169 l 426 104 b 429 249 426 151 428 201 l 431 249 l 458 135 l 496 135 l 524 249 b 528 104 526 201 528 151 l 568 104 b 560 306 565 169 563 257 l 504 306 l 478 194 l 451 306 z m 669 101 l 669 101 b 744 204 725 101 744 133 b 669 308 744 275 725 308 b 596 204 614 308 596 275 b 669 101 596 133 614 101 z m 669 274 b 704 204 699 274 704 250 b 669 135 704 160 699 135 b 636 204 642 135 636 160 b 669 274 636 250 642 274 z m 656 689 l 656 689 b 439 429 540 689 439 429 b 669 529 497 486 569 518 b 742 601 699 533 742 558 b 656 689 742 631 728 689 z m 193 617 l 193 617 b 107 529 136 617 107 574 b 193 457 107 486 150 457 b 410 357 281 457 353 429 b 193 617 410 357 324 617 z m 436 824 l 436 824 b 313 822 394 864 343 853 b 325 710 283 790 294 740 b 410 486 388 650 419 578 b 436 824 410 486 529 733 z "},"`":{"ha":831,"x_min":0,"x_max":0,"o":"m 140 274 l 140 274 b 183 204 176 274 183 249 b 140 135 183 161 176 135 b 128 136 136 135 131 135 l 128 272 b 140 274 132 274 136 274 z m 351 224 l 296 224 l 296 271 l 361 271 l 361 306 l 256 306 l 256 104 l 361 104 l 361 138 l 296 138 l 296 190 l 351 190 z m 138 101 l 138 101 b 224 204 200 101 224 133 b 139 308 224 274 201 308 b 88 303 125 308 106 306 l 88 104 b 138 101 106 101 126 101 z m 397 306 l 397 306 b 388 104 393 257 389 169 l 426 104 b 429 249 426 151 428 201 l 431 249 l 458 135 l 496 135 l 524 249 b 528 104 526 201 528 151 l 568 104 b 560 306 565 169 563 257 l 504 306 l 478 194 l 451 306 z m 669 101 l 669 101 b 744 204 725 101 744 133 b 669 308 744 275 725 308 b 596 204 614 308 596 275 b 669 101 596 133 614 101 z m 669 274 b 704 204 699 274 704 250 b 669 135 704 160 699 135 b 636 204 642 135 636 160 b 669 274 636 250 642 274 z m 656 689 l 656 689 b 439 429 540 689 439 429 b 669 529 497 486 569 518 b 742 601 699 533 742 558 b 656 689 742 631 728 689 z m 193 617 l 193 617 b 107 529 136 617 107 574 b 193 457 107 486 150 457 b 410 357 281 457 353 429 b 193 617 410 357 324 617 z m 436 824 l 436 824 b 313 822 394 864 343 853 b 325 710 283 790 294 740 b 410 486 388 650 419 578 b 436 824 410 486 529 733 z "},"a":{"ha":378,"x_min":0,"x_max":0,"o":"m 124 -14 b 229 149 192 -14 229 43 l 253 149 l 278 0 l 357 0 l 357 536 b 186 708 357 649 297 708 b 15 536 68 708 8 649 l 21 446 l 168 446 l 163 531 b 186 569 161 556 169 569 b 210 531 201 569 210 556 l 211 354 l 189 354 b 117 406 181 388 156 406 b 14 250 50 406 14 351 l 14 169 b 124 -14 14 50 53 -14 z m 186 125 b 161 164 169 125 161 139 l 161 286 b 186 325 161 311 169 325 b 210 286 201 325 210 311 l 210 164 b 186 125 210 139 201 125 z "},"b":{"ha":385,"x_min":0,"x_max":0,"o":"m 254 -14 b 364 169 325 -14 364 50 l 364 525 b 254 708 364 644 325 708 b 149 546 186 708 149 651 l 125 546 l 168 972 l 21 972 l 21 0 l 100 0 l 125 149 l 149 149 b 254 -14 149 43 186 -14 z m 192 125 b 168 164 176 125 168 139 l 168 531 b 192 569 168 556 176 569 b 217 531 208 569 217 556 l 217 164 b 192 125 217 139 208 125 z "},"c":{"ha":382,"x_min":0,"x_max":0,"o":"m 192 -14 b 363 157 303 -14 363 46 l 363 283 l 217 283 l 217 164 b 192 125 217 139 208 125 b 167 164 175 125 167 139 l 167 531 b 192 569 167 556 175 569 b 217 531 210 569 218 556 l 207 383 l 353 383 l 363 536 b 192 708 369 649 310 708 b 21 536 81 708 21 649 l 21 157 b 192 -14 21 46 81 -14 z "},"d":{"ha":385,"x_min":0,"x_max":0,"o":"m 131 -14 b 236 149 199 -14 236 43 l 260 149 l 285 0 l 364 0 l 364 972 l 217 972 l 260 546 l 236 546 b 131 708 236 651 199 708 b 21 525 60 708 21 644 l 21 169 b 131 -14 21 50 60 -14 z m 193 125 b 168 164 176 125 168 139 l 168 531 b 193 569 168 556 176 569 b 217 531 208 569 217 556 l 217 164 b 193 125 217 139 208 125 z "},"e":{"ha":383,"x_min":0,"x_max":0,"o":"m 349 300 l 363 536 b 192 708 369 649 303 708 b 21 536 81 708 21 649 l 21 157 b 192 -14 21 46 81 -14 b 363 157 303 -14 363 46 l 363 242 l 217 242 l 217 164 b 192 125 217 139 208 125 b 167 164 175 125 167 139 l 167 300 z m 192 569 b 217 531 208 569 218 556 l 210 407 l 167 407 l 167 531 b 192 569 167 556 175 569 z "},"f":{"ha":307,"x_min":0,"x_max":0,"o":"m 306 763 l 306 828 b 154 986 306 931 253 986 b -1 822 44 986 -10 929 l 0 804 b 121 715 4 746 46 715 l 121 694 l 13 694 l 13 556 l 53 556 l 76 0 l 222 0 l 199 556 l 289 556 l 289 694 l 154 694 l 140 829 b 158 861 139 850 146 861 b 175 829 169 861 175 850 l 175 763 z "},"g":{"ha":376,"x_min":0,"x_max":0,"o":"m 192 -292 b 376 -115 311 -292 376 -231 l 376 -1 b 219 153 376 99 321 153 l 183 153 b 158 169 167 153 158 158 b 183 188 158 181 167 188 l 206 188 b 347 344 297 188 347 243 l 347 581 b 372 607 347 597 356 607 l 372 767 b 256 588 288 767 244 704 l 260 546 l 236 546 l 236 569 b 142 708 236 660 208 708 b 21 536 72 708 21 649 l 21 376 b 158 225 21 278 69 225 l 158 204 b 35 124 78 204 35 176 b 158 42 35 72 78 43 l 158 21 b 21 -72 69 21 21 -11 l 21 -164 b 192 -292 21 -247 81 -292 z m 192 313 b 167 351 175 313 167 326 l 167 531 b 192 569 167 556 175 569 b 217 531 208 569 217 556 l 217 351 b 192 313 217 326 208 313 z m 199 -167 b 167 -129 178 -167 167 -154 l 167 -24 b 199 14 167 1 178 14 b 231 -24 219 14 231 1 l 231 -129 b 199 -167 231 -154 219 -167 z "},"h":{"ha":382,"x_min":0,"x_max":0,"o":"m 21 0 l 167 0 l 167 531 b 190 569 167 556 175 569 b 215 531 207 569 215 556 l 215 0 l 361 0 l 361 525 b 254 708 361 644 324 708 b 149 546 186 708 149 651 l 125 546 l 168 972 l 21 972 z "},"i":{"ha":188,"x_min":0,"x_max":0,"o":"m 22 764 l 168 764 l 168 917 l 22 917 z m 21 0 l 167 0 l 167 694 l 21 694 z "},"j":{"ha":179,"x_min":0,"x_max":0,"o":"m 14 764 l 160 764 l 160 917 l 14 917 z m 6 -292 b 175 -112 118 -292 178 -229 l 154 694 l 8 694 l 33 -115 b 11 -153 35 -140 26 -153 b -12 -118 -4 -153 -12 -140 l -12 -40 l -158 -40 l -158 -129 b 6 -292 -158 -235 -107 -292 z "},"k":{"ha":368,"x_min":0,"x_max":0,"o":"m 21 0 l 168 0 l 168 328 l 190 328 l 222 0 l 368 0 l 325 389 l 231 389 l 231 410 l 240 410 b 347 576 297 410 335 468 l 361 694 l 215 694 l 201 506 b 176 467 200 481 192 467 l 168 467 l 168 972 l 21 972 z "},"l":{"ha":188,"x_min":0,"x_max":0,"o":"m 21 0 l 167 0 l 167 972 l 21 972 z "},"m":{"ha":581,"x_min":0,"x_max":0,"o":"m 21 0 l 168 0 l 168 531 b 192 569 168 556 176 569 b 217 531 208 569 217 556 l 217 0 l 364 0 l 364 531 b 388 569 364 556 372 569 b 413 531 404 569 413 556 l 413 0 l 560 0 l 560 525 b 453 708 560 644 522 708 b 347 546 385 708 347 651 l 324 546 b 247 708 338 651 310 708 b 153 546 186 708 153 651 l 129 546 l 146 694 l 21 694 z "},"n":{"ha":382,"x_min":0,"x_max":0,"o":"m 21 0 l 167 0 l 167 531 b 190 569 167 556 175 569 b 215 531 207 569 215 556 l 215 0 l 361 0 l 361 525 b 254 708 361 644 324 708 b 149 546 186 708 149 651 l 125 546 l 142 694 l 21 694 z "},"o":{"ha":383,"x_min":0,"x_max":0,"o":"m 192 -14 b 363 157 303 -14 363 46 l 363 536 b 192 708 363 649 303 708 b 21 536 81 708 21 649 l 21 157 b 192 -14 21 46 81 -14 z m 192 125 b 167 164 175 125 167 139 l 167 531 b 192 569 167 556 175 569 b 217 531 208 569 217 556 l 217 164 b 192 125 217 139 208 125 z "},"p":{"ha":385,"x_min":0,"x_max":0,"o":"m 21 -278 l 168 -278 l 125 149 l 149 149 b 254 -14 149 43 186 -14 b 364 169 325 -14 364 50 l 364 525 b 254 708 364 644 325 708 b 149 546 186 708 149 651 l 125 546 l 142 694 l 21 694 z m 192 125 b 168 164 176 125 168 139 l 168 531 b 192 569 168 556 176 569 b 217 531 208 569 217 556 l 217 164 b 192 125 217 139 208 125 z "},"q":{"ha":385,"x_min":0,"x_max":0,"o":"m 217 -278 l 364 -278 l 364 694 l 243 694 l 260 546 l 236 546 b 131 708 236 651 199 708 b 21 525 60 708 21 644 l 21 169 b 131 -14 21 50 60 -14 b 236 149 199 -14 236 43 l 260 149 z m 193 125 b 168 164 176 125 168 139 l 168 531 b 193 569 168 556 176 569 b 217 531 208 569 217 556 l 217 164 b 193 125 217 139 208 125 z "},"r":{"ha":374,"x_min":0,"x_max":0,"o":"m 21 0 l 168 0 l 168 531 b 192 569 168 556 176 569 b 215 531 208 569 217 556 l 204 311 l 350 311 l 360 536 b 254 708 365 649 328 708 b 149 546 186 708 149 651 l 125 546 l 142 694 l 21 694 z "},"s":{"ha":382,"x_min":0,"x_max":0,"o":"m 189 -14 b 361 158 301 -14 361 46 l 361 203 b 167 497 361 383 167 386 l 167 531 b 193 569 167 556 176 569 b 215 531 208 569 217 556 l 210 450 l 356 450 l 361 536 b 193 708 368 649 310 708 b 21 536 81 708 21 649 l 21 485 b 215 190 21 306 215 311 l 215 164 b 190 125 215 139 207 125 b 167 164 175 125 167 139 l 167 231 l 21 231 l 21 158 b 189 -14 21 46 79 -14 z "},"t":{"ha":364,"x_min":0,"x_max":0,"o":"m 206 411 l 207 153 b 188 124 207 133 200 124 b 168 154 174 124 167 135 l 186 556 l 346 556 l 346 694 l 192 694 l 201 917 l 54 917 l 44 694 l 0 694 l 0 556 l 39 556 l 21 158 b 188 -14 17 46 75 -14 b 350 158 293 -14 350 46 l 350 411 z "},"u":{"ha":379,"x_min":0,"x_max":0,"o":"m 125 -14 b 231 149 193 -14 231 43 l 254 149 l 276 0 l 358 0 l 358 694 l 211 694 l 211 164 b 188 125 211 139 203 125 b 163 164 171 125 163 139 l 172 694 l 25 694 l 15 169 b 125 -14 13 50 54 -14 z "},"v":{"ha":372,"x_min":0,"x_max":0,"o":"m 364 694 l 221 694 l 200 267 l 199 139 l 175 139 l 174 267 l 151 694 l 8 694 l 47 0 l 325 0 z "},"w":{"ha":642,"x_min":0,"x_max":0,"o":"m 490 694 l 468 267 l 467 139 l 443 139 l 442 267 l 421 694 l 221 694 l 200 267 l 199 139 l 175 139 l 174 267 l 151 694 l 8 694 l 47 0 l 286 0 l 308 428 l 310 556 l 333 556 l 335 428 l 356 0 l 594 0 l 633 694 z "},"x":{"ha":381,"x_min":0,"x_max":0,"o":"m 7 0 l 153 0 l 167 238 b 192 279 168 264 176 279 l 203 279 l 221 0 l 367 0 l 335 376 l 215 376 l 215 397 l 256 397 b 363 560 317 397 354 454 l 374 694 l 228 694 l 214 457 b 189 418 213 432 204 418 l 178 418 l 160 694 l 14 694 l 46 324 l 165 324 l 165 300 l 125 300 b 18 136 64 300 26 243 z "},"y":{"ha":385,"x_min":0,"x_max":0,"o":"m 193 -292 b 364 -121 304 -292 364 -232 l 364 694 l 217 694 l 217 197 b 193 158 217 172 208 158 b 168 197 176 158 168 172 l 168 694 l 21 694 l 21 203 b 131 19 21 83 60 19 b 236 182 199 19 236 76 l 260 182 l 224 -107 b 193 -146 221 -132 210 -146 b 168 -107 176 -146 168 -132 l 168 0 l 22 0 l 22 -121 b 193 -292 22 -232 82 -292 z "},"z":{"ha":379,"x_min":0,"x_max":0,"o":"m 192 -292 b 363 -121 303 -292 363 -232 l 363 54 b 239 218 363 161 319 218 l 206 218 l 206 242 l 225 242 b 350 406 301 242 344 299 l 364 694 l 21 694 l 21 328 l 167 328 l 167 556 l 217 556 l 204 315 b 164 263 203 281 188 263 l 35 263 l 35 124 l 179 124 b 218 85 204 124 218 110 l 218 17 l 196 17 b 124 72 189 53 164 72 b 21 -83 57 72 21 18 l 21 -121 b 192 -292 21 -232 81 -292 z m 192 -153 b 167 -114 175 -153 167 -139 l 167 -42 b 193 -3 167 -17 176 -3 b 217 -42 208 -3 217 -17 l 217 -114 b 192 -153 217 -139 208 -153 z "},"{":{"ha":831,"x_min":0,"x_max":0,"o":"m 140 274 l 140 274 b 183 204 176 274 183 249 b 140 135 183 161 176 135 b 128 136 136 135 131 135 l 128 272 b 140 274 132 274 136 274 z m 351 224 l 296 224 l 296 271 l 361 271 l 361 306 l 256 306 l 256 104 l 361 104 l 361 138 l 296 138 l 296 190 l 351 190 z m 138 101 l 138 101 b 224 204 200 101 224 133 b 139 308 224 274 201 308 b 88 303 125 308 106 306 l 88 104 b 138 101 106 101 126 101 z m 397 306 l 397 306 b 388 104 393 257 389 169 l 426 104 b 429 249 426 151 428 201 l 431 249 l 458 135 l 496 135 l 524 249 b 528 104 526 201 528 151 l 568 104 b 560 306 565 169 563 257 l 504 306 l 478 194 l 451 306 z m 669 101 l 669 101 b 744 204 725 101 744 133 b 669 308 744 275 725 308 b 596 204 614 308 596 275 b 669 101 596 133 614 101 z m 669 274 b 704 204 699 274 704 250 b 669 135 704 160 699 135 b 636 204 642 135 636 160 b 669 274 636 250 642 274 z m 656 689 l 656 689 b 439 429 540 689 439 429 b 669 529 497 486 569 518 b 742 601 699 533 742 558 b 656 689 742 631 728 689 z m 193 617 l 193 617 b 107 529 136 617 107 574 b 193 457 107 486 150 457 b 410 357 281 457 353 429 b 193 617 410 357 324 617 z m 436 824 l 436 824 b 313 822 394 864 343 853 b 325 710 283 790 294 740 b 410 486 388 650 419 578 b 436 824 410 486 529 733 z "},"|":{"ha":831,"x_min":0,"x_max":0,"o":"m 140 274 l 140 274 b 183 204 176 274 183 249 b 140 135 183 161 176 135 b 128 136 136 135 131 135 l 128 272 b 140 274 132 274 136 274 z m 351 224 l 296 224 l 296 271 l 361 271 l 361 306 l 256 306 l 256 104 l 361 104 l 361 138 l 296 138 l 296 190 l 351 190 z m 138 101 l 138 101 b 224 204 200 101 224 133 b 139 308 224 274 201 308 b 88 303 125 308 106 306 l 88 104 b 138 101 106 101 126 101 z m 397 306 l 397 306 b 388 104 393 257 389 169 l 426 104 b 429 249 426 151 428 201 l 431 249 l 458 135 l 496 135 l 524 249 b 528 104 526 201 528 151 l 568 104 b 560 306 565 169 563 257 l 504 306 l 478 194 l 451 306 z m 669 101 l 669 101 b 744 204 725 101 744 133 b 669 308 744 275 725 308 b 596 204 614 308 596 275 b 669 101 596 133 614 101 z m 669 274 b 704 204 699 274 704 250 b 669 135 704 160 699 135 b 636 204 642 135 636 160 b 669 274 636 250 642 274 z m 656 689 l 656 689 b 439 429 540 689 439 429 b 669 529 497 486 569 518 b 742 601 699 533 742 558 b 656 689 742 631 728 689 z m 193 617 l 193 617 b 107 529 136 617 107 574 b 193 457 107 486 150 457 b 410 357 281 457 353 429 b 193 617 410 357 324 617 z m 436 824 l 436 824 b 313 822 394 864 343 853 b 325 710 283 790 294 740 b 410 486 388 650 419 578 b 436 824 410 486 529 733 z "},"}":{"ha":831,"x_min":0,"x_max":0,"o":"m 140 274 l 140 274 b 183 204 176 274 183 249 b 140 135 183 161 176 135 b 128 136 136 135 131 135 l 128 272 b 140 274 132 274 136 274 z m 351 224 l 296 224 l 296 271 l 361 271 l 361 306 l 256 306 l 256 104 l 361 104 l 361 138 l 296 138 l 296 190 l 351 190 z m 138 101 l 138 101 b 224 204 200 101 224 133 b 139 308 224 274 201 308 b 88 303 125 308 106 306 l 88 104 b 138 101 106 101 126 101 z m 397 306 l 397 306 b 388 104 393 257 389 169 l 426 104 b 429 249 426 151 428 201 l 431 249 l 458 135 l 496 135 l 524 249 b 528 104 526 201 528 151 l 568 104 b 560 306 565 169 563 257 l 504 306 l 478 194 l 451 306 z m 669 101 l 669 101 b 744 204 725 101 744 133 b 669 308 744 275 725 308 b 596 204 614 308 596 275 b 669 101 596 133 614 101 z m 669 274 b 704 204 699 274 704 250 b 669 135 704 160 699 135 b 636 204 642 135 636 160 b 669 274 636 250 642 274 z m 656 689 l 656 689 b 439 429 540 689 439 429 b 669 529 497 486 569 518 b 742 601 699 533 742 558 b 656 689 742 631 728 689 z m 193 617 l 193 617 b 107 529 136 617 107 574 b 193 457 107 486 150 457 b 410 357 281 457 353 429 b 193 617 410 357 324 617 z m 436 824 l 436 824 b 313 822 394 864 343 853 b 325 710 283 790 294 740 b 410 486 388 650 419 578 b 436 824 410 486 529 733 z "},"~":{"ha":831,"x_min":0,"x_max":0,"o":"m 140 274 l 140 274 b 183 204 176 274 183 249 b 140 135 183 161 176 135 b 128 136 136 135 131 135 l 128 272 b 140 274 132 274 136 274 z m 351 224 l 296 224 l 296 271 l 361 271 l 361 306 l 256 306 l 256 104 l 361 104 l 361 138 l 296 138 l 296 190 l 351 190 z m 138 101 l 138 101 b 224 204 200 101 224 133 b 139 308 224 274 201 308 b 88 303 125 308 106 306 l 88 104 b 138 101 106 101 126 101 z m 397 306 l 397 306 b 388 104 393 257 389 169 l 426 104 b 429 249 426 151 428 201 l 431 249 l 458 135 l 496 135 l 524 249 b 528 104 526 201 528 151 l 568 104 b 560 306 565 169 563 257 l 504 306 l 478 194 l 451 306 z m 669 101 l 669 101 b 744 204 725 101 744 133 b 669 308 744 275 725 308 b 596 204 614 308 596 275 b 669 101 596 133 614 101 z m 669 274 b 704 204 699 274 704 250 b 669 135 704 160 699 135 b 636 204 642 135 636 160 b 669 274 636 250 642 274 z m 656 689 l 656 689 b 439 429 540 689 439 429 b 669 529 497 486 569 518 b 742 601 699 533 742 558 b 656 689 742 631 728 689 z m 193 617 l 193 617 b 107 529 136 617 107 574 b 193 457 107 486 150 457 b 410 357 281 457 353 429 b 193 617 410 357 324 617 z m 436 824 l 436 824 b 313 822 394 864 343 853 b 325 710 283 790 294 740 b 410 486 388 650 419 578 b 436 824 410 486 529 733 z "}}}
